<?xml version="1.0" encoding="utf-8"?>
<!-- Generator: Adobe Illustrator 21.1.0, SVG Export Plug-In . SVG Version: 6.00 Build 0)  -->
<svg version="1.1" id="Layer_1" xmlns="http://www.w3.org/2000/svg" xmlns:xlink="http://www.w3.org/1999/xlink" x="0px" y="0px"
	 viewBox="0 0 2488 1385.9" style="enable-background:new 0 0 2488 1385.9;" xml:space="preserve">
<style type="text/css">
	.st0{fill:#FCC726;}
	.st1{fill:#FFFFFF;}
	.st2{fill:#050606;}
	.st3{fill:#180D0E;}
	.st4{fill:#121212;}
</style>
<g>
	<path d="M99.4,930.2c-13.4-18.4-26.9-36.8-40.3-55.1c-0.1-0.4-2.7-9.6,3.8-16.4c5.2-5.5,12.2-5.1,13.2-5
		c784.3-27.4,1568.7-54.9,2353-82.3c1.9-0.5,12.1-2.7,21.3,3.5c11.5,7.8,11.4,22,11.3,24.1c-0.3,10.1-5.7,17-7.6,19.1
		c-78.6,133-157.2,266.1-235.8,399.1c-5.1,11.1-14.4,27.1-30.7,41.6c-8.5,7.5-26.8,23.4-54.4,27.4c-5.6,0.8-10.3,1-13.7,0.9
		c-581.3,5.4-1162.5,10.7-1743.8,16.1c-2.7-0.9-5.8-2.3-9.1-4.4c-7-4.5-11.1-10.3-13.2-13.9C268.7,1166.8,184,1048.5,99.4,930.2z"/>
	<path class="st0" d="M40.9,899.1C27.5,880.7,14,862.3,0.6,843.9c-0.1-0.4-2.7-9.6,3.8-16.4c5.2-5.5,12.2-5.1,13.2-5
		c784.3-27.4,1568.7-54.9,2353-82.3c1.9-0.5,12.1-2.7,21.3,3.5c11.5,7.8,11.4,22,11.3,24.1c-0.3,10.1-5.7,17-7.6,19.1
		c-78.6,133-157.2,266.1-235.8,399.1c-5.1,11.1-14.4,27.1-30.7,41.6c-8.5,7.5-26.8,23.4-54.4,27.4c-5.6,0.8-10.3,1-13.7,0.9
		c-581.3,5.4-1162.5,10.7-1743.8,16.1c-2.7-0.9-5.8-2.3-9.1-4.4c-7-4.5-11.1-10.3-13.2-13.9C210.2,1135.6,125.6,1017.3,40.9,899.1z"
		/>
	<g>
		<path class="st1" d="M2408.5,432.2L2408.5,432.2c-33.7-79.8-82-151.4-143.5-212.9c-61.5-61.5-133.1-109.8-212.9-143.5
			c-82.6-34.9-170.3-52.7-260.7-52.7c-90.4,0-178.1,17.7-260.7,52.7c-79.8,33.7-151.4,82-212.9,143.5
			c-61.5,61.5-109.8,133.1-143.5,212.9c-34.9,82.6-52.7,170.3-52.7,260.7s17.7,178.1,52.7,260.7c33.7,79.8,82,151.4,143.5,212.9
			c61.5,61.5,133.1,109.8,212.9,143.5c82.6,34.9,170.3,52.7,260.7,52.7c90.4,0,178.1-17.7,260.7-52.7
			c79.8-33.7,151.4-82,212.9-143.5c61.5-61.5,109.8-133.1,143.5-212.9c34.9-82.6,52.7-170.3,52.7-260.7S2443.4,514.9,2408.5,432.2z
			 M2334.3,693c0,299.4-243.5,542.9-542.9,542.9S1248.5,992.3,1248.5,693s243.5-542.9,542.9-542.9S2334.3,393.6,2334.3,693z"/>
		<circle class="st0" cx="1791.4" cy="693" r="560.9"/>
		<circle class="st1" cx="1791.4" cy="693" r="309.4"/>
		<g>
			<g>
				<polygon points="1885.6,475.9 1879.3,527.8 1876.5,608.2 1871.2,641.2 2023.2,653.2 2059.5,451.5 2032.5,433.4 1985.4,430.9 
					1922.4,445.6 1880.8,457.6 				"/>
				<path class="st2" d="M1402.6,583l-13.3-2.1l-13.8-9.5l-12.3,21.7l1.7,13.7l8,1.3l-2.5,15.5l2.4,7l12.1,1.9l5.7-16.2l8.4-1.4
					l9.1-23L1402.6,583z M1387.2,608.9l-11.1-3.2c0,0,3.3-8.3,4-9.8l8.8,2.2L1387.2,608.9z"/>
				<g>
					<polygon class="st0" points="1381.8,595.7 1380.2,592.8 1383.6,571.5 1384,570.5 1433.2,494.7 1433.6,494.2 1563.5,366.4 
						1696.8,218.8 1697.4,218.3 1744.6,190.9 1745,190.7 1781.8,176.4 1784.5,176.9 1801.1,191.2 1802,192.8 1806.5,218.1 
						1805.4,220.8 1781.8,237.4 1740.6,269.8 1567,426.7 1439.5,540.2 1398.7,600 1395.5,601 					"/>
					<path d="M1782.7,178.9l16.6,14.3l4.5,25.3l-23.7,16.7l-41.3,32.5l-173.7,156.9l-127.7,113.8l-41,60l-13.7-5.3l3.4-21.2
						l49.3-75.8l129.9-127.9l133.4-147.6l47.2-27.4L1782.7,178.9 M1780.8,173.9l-36.8,14.3l-0.7,0.4l-47.2,27.4l-1.3,1l-133.3,147.5
						l-129.8,127.8l-0.7,0.9l-49.3,75.8l-0.8,2.1l-3.4,21.2l3.4,5.8l13.7,5.3l6.4-2l40.6-59.5l127.2-113.3l0,0l173.6-156.8l41-32.3
						l23.6-16.6l2.2-5.3l-4.5-25.3l-1.8-3.1l-16.6-14.3L1780.8,173.9L1780.8,173.9z"/>
				</g>
				<path d="M1758.9,230.8l-1.4,8.6l10.7,14.2l-1.2,7.6l69.7,95.2l12.6,2l-12.3-55.9l-24.6-11.7l-17.9-30.9l-0.9-16.7l-4.4-20.9
					C1789.3,222.2,1767.3,214,1758.9,230.8z"/>
				<polyline points="1384.1,581.7 1382.3,576.8 1377.1,580.6 1395.7,530.7 1423.4,498.9 1698.7,192.1 1727.3,162.6 1776,159.4 
					1811.2,176.1 1957.2,432.2 1877.7,456.2 1836.7,356.3 1800.5,219.9 1795.2,216.8 1785.7,184.8 1759.7,193.1 1753.6,205.6 
					1723.3,226.1 1418.3,530.2 1384.1,581.7 				"/>
				<g>
					<path class="st0" d="M2103.7,499.4c-2.4,0-4.1-0.1-4.1-0.1l-1-0.1l-50.5-48.5l2.8-17.4l34.6-19.9l55.7,58.9l-1,1.7
						c-1,1.7-10,16.9-15.6,21.3C2121.1,498.1,2114.1,499.4,2103.7,499.4C2103.7,499.4,2103.7,499.4,2103.7,499.4z"/>
					<path d="M2084.9,416.9l52.8,55.9c0,0-9.6,16.3-15,20.5c-3.7,2.9-13.5,3.4-19.1,3.4c-2.4,0-4-0.1-4-0.1l-48.8-46.8l2.4-14.7
						L2084.9,416.9 M2085.9,410.2l-3.7,2.1l-31.6,18.2l-2.2,1.3l-0.4,2.5l-2.4,14.7l-0.4,2.8l2,1.9l48.8,46.8l1.4,1.4l2,0.1
						c0.1,0,1.8,0.1,4.3,0.1c16.6,0,21-3.4,22.4-4.5c5.8-4.6,14.6-19.2,16.3-22l2-3.5l-2.8-2.9l-52.8-55.9L2085.9,410.2
						L2085.9,410.2z"/>
				</g>
				<g>
					<path class="st0" d="M1874.1,454.5l82.6-24.9l130.1-15.6l0.7,2.1c0.2,0.5,3.8,12.3-1.4,21.8c-2.7,4.9-7.3,8.2-13.5,9.9
						c-20.2,5.3-70.4,14.3-70.9,14.3l-1.7,0.3l-17.7-25.7l-91.9,22.3l1.8,2l-5.8,23.7L1874.1,454.5z"/>
					<path d="M2084.9,416.9c0,0,7.2,22.9-13.1,28.2c-20.3,5.3-70.7,14.3-70.7,14.3l-17.8-25.8l-98.1,23.8l4,4.3l-3.5,14.2l-8-19.7
						l79.6-24L2084.9,416.9 M2088.7,411.1l-4.4,0.5l-127.7,15.3l-0.5,0.1l-0.4,0.1l-79.6,24l-5.6,1.7l2.2,5.4l8,19.7l6.3,15.4
						l3.9-16.2l3.5-14.2l0.6-2.4l86.1-20.8l15.7,22.8l2,2.8l3.4-0.6c2.1-0.4,50.9-9.1,71.1-14.4c7-1.8,12.1-5.6,15.2-11.2
						c5.8-10.4,1.8-23.3,1.7-23.9L2088.7,411.1L2088.7,411.1z"/>
				</g>
				<path class="st1" d="M1893.6,467.5c0,0-10.7,59.3-7.3,72.3c0,0,64.4-21.1,93.5-15.7l13.7-70.9l-4.5-6.2
					C1989.1,447,1899.6,457.7,1893.6,467.5z"/>
				<path class="st1" d="M1897.7,542.6c0,0-5.6,15.6-11.7,21.1l-0.5,39.2l29.9,1.5c0,0-5.3-11.9,6.3-17.6s51.2-16.3,51.2-16.3
					l6.2-38.7C1979.1,531.8,1912.2,537.9,1897.7,542.6z"/>
				<path class="st1" d="M2003.3,463.2l-14.3,89.2c0,0,20.7-17.4,31.4-19.8l11.3-70.5C2031.7,462,2018.5,458.9,2003.3,463.2z"/>
				<polygon points="2022,610.6 2136.9,735.4 2147.2,719.8 2189.9,771 2170.8,785.8 2182.6,947.5 2208.4,948.5 2216.3,972 
					2164.8,963.7 2130.6,779.3 2004.1,613.6 				"/>
				<polygon class="st3" points="2023.2,653.2 2036.5,674.7 1929.6,669.4 1871.2,641.2 				"/>
				<polygon points="2099.7,496.7 2058.5,457.2 2023.2,653.2 2035.1,660.4 2079.4,672.2 				"/>
				<path class="st0" d="M1946.4,680.1c0,0-32.2-54.7-20.9-84.2c11.2-29.6,85.1,25.6,85.1,25.6s88.7,117.8,103.6,150.9
					s6.7,35.7,6.7,35.7l12.3,30l-19-3l-7.4,12.4l-13.9-27.1l-109.3-103.9L1946.4,680.1z"/>
				<path d="M1945.3,674.1l4.5,8.1l59.9,147.3l5.7,0.9l34.1,80.5c0,0,5.8-4.5,11.3-2.8l-36-83.5l3.7-3.7l-2.4-7l6.1-1.7l10.6,28.5
					l4-0.9l27.4,61.9c0,0,8.9-7.1,9.2-11l-29-56.8l4.5-1.6l-9.2-24.8l-23.2-51.6l-29-25.3l32.4,76.4l-4.8,0.8l-41.7-91.5l-22.9-53.5
					C1960.7,663,1955.7,677.3,1945.3,674.1z"/>
				<path d="M1384,642.1l5.7-3.5l6.1,5.4l7.2,3.7l3.9,13.1l-4,5.6l-1.8,3.1l4.8,24.9l0.5,9.9c0,0,40.3,12.4,20.8,52.9
					c-19.5,40.4-42.1,24.6-42.1,24.6s9.6-0.3,22.5-22.6c12.9-22.3-31.9-56.7-31.9-56.7l20.3-8.4l-5.9-23.2l-5.6-8.4L1384,642.1z"/>
				<path d="M1372.9,628.9l-11.3,2.6l-7.5,5l-4.3-0.7l-10.2,15.2l1.5,4.9l-27.4,35c0,0-39.2,3.6-41.3,31.2
					c-2.1,27.7,31.6,41.9,31.6,41.9s-36.7-34.4-6.1-57c0,0,17-5.6,31.5-2.2c0,0,4.4-11,10.6-11.3c0,0-17.8-0.3-10.8-11.8l21.4-23.8
					l6.6,2.4l0.9-5.8l-6.9-6.8l2.8-7.8l13-3.6l4.7,0L1372.9,628.9z"/>
				<path class="st4" d="M1369.8,634.1c-0.8-0.1-19,5.2-19,5.2l-1.7,10.9l6.1,5.9l0.6,9.4l-11,26.2l-4.7,1.8c0,0-19.8,3.8-19.4,40.2
					c0.4,36.4,17.2,40.1,17.2,40.1s14,12.9,9-7.6s3.7-56.7,13.6-58.7s7.2-1.4,7.2-1.4l9.7,3.1c0,0,10.9-9.7,13.6-9
					s-4.3-8.5-4.1-16.2c0.2-7.7-1.8-11.7-1.5-13s4.1-4.8,4.1-4.8s-3.9-16.2-2.8-21.4s0.8-7.9,0.8-7.9l-3.2-7.8l-8.1-1.3
					L1369.8,634.1z"/>
			</g>
			<polygon points="1938.7,611.4 1948.6,653.6 1986.3,657.2 2006.8,708.3 2088.4,780.2 2030.5,682.4 1991.4,625.1 			"/>
			<polygon class="st0" points="2046.4,458.9 2013.5,612 2022.8,624.9 			"/>
		</g>
		<path d="M2340.2,809.3H1242.5c53.6,254,278.9,444.6,548.9,444.6S2286.7,1063.3,2340.2,809.3z"/>
		<g>
			<path d="M2433.5,423.2L2433.5,423.2c-34.9-82.5-84.9-156.6-148.5-220.2c-63.6-63.6-137.7-113.6-220.2-148.5
				C1979.3,18.3,1888.5,0,1795,0s-184.3,18.3-269.8,54.5c-82.5,34.9-156.6,84.9-220.2,148.5c-63.6,63.6-113.6,137.7-148.5,220.2
				c-36.2,85.5-54.5,176.2-54.5,269.8s18.3,184.3,54.5,269.8c34.9,82.5,84.9,156.6,148.5,220.2c63.6,63.6,137.7,113.6,220.2,148.5
				c85.5,36.2,176.2,54.5,269.8,54.5s184.3-18.3,269.8-54.5c82.5-34.9,156.6-84.9,220.2-148.5c63.6-63.6,113.6-137.7,148.5-220.2
				c36.2-85.5,54.5-176.2,54.5-269.8S2469.7,508.7,2433.5,423.2z M1791.4,1282.4c-325,0-589.4-264.4-589.4-589.4
				s264.4-589.4,589.4-589.4S2380.7,368,2380.7,693S2116.3,1282.4,1791.4,1282.4z"/>
		</g>
		<polygon points="1866.1,653.2 1932.3,685.9 1981.9,796.9 1557.1,796.9 1557.1,663 		"/>
		<polygon points="1558.4,650 1861.1,643.1 1867.4,608.8 		"/>
	</g>
	<g>
		<path d="M447.3,907.8l-81.1,58.5v209.5h231v-33.9h75v33.9H897v-268H447.3z M725.5,1002.3H540.7v-34.9h184.8V1002.3z"/>
		<path d="M1477.2,1017.7v-50.3l-82.1-59.6H946.3v268h450.8l80.1-63.7v-49.3h-73.9v-45.2H1477.2z M1301.6,1112.2h-184.8v-34.9h184.8
			V1112.2z M1301.6,1002.3h-184.8v-34.9h184.8V1002.3z"/>
		<polygon points="1522.4,967.4 1522.4,1112.2 1603.5,1175.8 1974.2,1175.8 2053.3,1112.2 2053.3,1064.9 1733.9,1064.9 
			1733.9,1016.7 2053.3,1016.7 2053.3,967.4 1973.2,907.8 1601.5,907.8 		"/>
	</g>
	<g>
		<path class="st1" d="M426.4,869.9l-81.1,58.5v209.5h231V1104h75v33.9h224.9v-268H426.4z M704.6,964.3H519.8v-34.9h184.8V964.3z"/>
		<path class="st1" d="M1456.3,979.7v-50.3l-82.1-59.6H925.4v268h450.8l80.1-63.7v-49.3h-73.9v-45.2H1456.3z M1280.7,1074.2h-184.8
			v-34.9h184.8V1074.2z M1280.7,964.3h-184.8v-34.9h184.8V964.3z"/>
		<polygon class="st1" points="1501.5,929.4 1501.5,1074.2 1582.6,1137.9 1953.3,1137.9 2032.4,1074.2 2032.4,1027 1713,1027 
			1713,978.7 2032.4,978.7 2032.4,929.4 1952.3,869.9 1580.5,869.9 		"/>
	</g>
</g>
</svg>
